<svg width="16" height="16" viewBox="0 0 16 16" fill="none" xmlns="http://www.w3.org/2000/svg">
<rect width="16" height="16" rx="3" fill="#D9D9D9"/>
<rect width="16" height="16" rx="3" fill="url(#paint0_linear_9_4)"/>
<path d="M13.2622 10.2756L13.7173 10.9724C13.5751 11.4844 13.3807 11.9159 13.1342 12.2667C12.8877 12.6175 12.627 12.8687 12.352 13.0204C11.8684 13.2859 11.4086 13.4187 10.9724 13.4187C10.2139 13.4187 9.64978 13.2006 9.28 12.7644C8.9197 12.3188 8.73007 11.7262 8.71111 10.9867C8.68267 9.792 8.61156 9.04771 8.49778 8.75378C8.384 8.45985 8.12326 8.29393 7.71556 8.256L7.81511 7.18933C7.98578 7.16089 8.11852 7.12296 8.21333 7.07556C8.30815 7.02815 8.43141 6.93333 8.58311 6.79111C8.90548 6.50667 9.14252 5.83822 9.29422 4.78578C9.41748 3.98933 9.66874 3.41096 10.048 3.05067C10.4367 2.69037 10.8539 2.51022 11.2996 2.51022C11.7452 2.51022 12.1387 2.64296 12.48 2.90845C12.8213 3.16445 12.992 3.58163 12.992 4.16C12.992 4.928 12.7123 5.59171 12.1529 6.15111C11.603 6.71052 10.835 7.21778 9.84889 7.67289C10.1902 7.83408 10.4415 8.1043 10.6027 8.48356C10.7639 8.86282 10.8539 9.26104 10.8729 9.67822C10.8919 10.0954 10.9061 10.4984 10.9156 10.8871C10.9535 11.7973 11.2237 12.2524 11.7262 12.2524C12.3141 12.2524 12.8261 11.5935 13.2622 10.2756ZM4.40178 13.4187C3.89926 13.4187 3.4963 13.267 3.19289 12.9636C2.88948 12.6601 2.73778 12.2714 2.73778 11.7973C2.73778 10.688 3.57689 9.73511 5.25511 8.93867C5.32148 8.37926 5.4163 7.58756 5.53956 6.56356C5.77659 4.45867 5.91882 3.23556 5.96622 2.89422C6.35496 2.6477 6.75793 2.52445 7.17511 2.52445C7.60178 2.52445 7.92415 2.54815 8.14222 2.59556L7.08978 10.6311C6.80533 12.4895 5.90933 13.4187 4.40178 13.4187ZM11.9964 4.48711C11.9964 4.34489 11.9538 4.23585 11.8684 4.16C11.7926 4.08415 11.7167 4.04622 11.6409 4.04622C11.565 4.04622 11.5034 4.0557 11.456 4.07467C11.4181 4.09363 11.3801 4.12682 11.3422 4.17422C11.3138 4.21215 11.2901 4.25482 11.2711 4.30222C11.2521 4.34015 11.2284 4.40178 11.2 4.48711C11.181 4.57245 11.1621 4.6483 11.1431 4.71467C11.1336 4.77156 11.1147 4.85689 11.0862 4.97067C11.0578 5.08445 11.0199 5.24089 10.9724 5.44C10.925 5.62963 10.8681 5.824 10.8018 6.02311C11.5982 5.51111 11.9964 4.99911 11.9964 4.48711ZM3.79022 11.6124C3.79022 11.9538 3.95141 12.1244 4.27378 12.1244C4.40652 12.1244 4.544 12.0391 4.68622 11.8684C4.83793 11.6883 4.94222 11.4086 4.99911 11.0293L5.11289 10.1476C4.23111 10.6596 3.79022 11.1479 3.79022 11.6124Z" fill="white"/>
<defs>
<linearGradient id="paint0_linear_9_4" x1="15" y1="-1.33333" x2="6.76238" y2="20.2904" gradientUnits="userSpaceOnUse">
<stop stop-color="#005F78"/>
<stop offset="1" stop-color="#006045"/>
</linearGradient>
</defs>
</svg>
