<svg width="18" height="18" viewBox="0 0 18 18" fill="none" xmlns="http://www.w3.org/2000/svg">
<rect width="18" height="18" rx="3" fill="#D9D9D9"/>
<rect width="18" height="18" rx="3" fill="url(#paint0_linear_8_18)"/>
<path d="M14.92 11.56L15.432 12.344C15.272 12.92 15.0533 13.4053 14.776 13.8C14.4987 14.1947 14.2053 14.4773 13.896 14.648C13.352 14.9467 12.8347 15.096 12.344 15.096C11.4907 15.096 10.856 14.8507 10.44 14.36C10.0347 13.8587 9.82134 13.192 9.8 12.36C9.768 11.016 9.688 10.1787 9.56 9.84801C9.432 9.51734 9.13867 9.33067 8.68 9.28801L8.792 8.08801C8.984 8.056 9.13334 8.01334 9.24 7.96C9.34667 7.90667 9.48534 7.8 9.656 7.64001C10.0187 7.32001 10.2853 6.56801 10.456 5.38401C10.5947 4.488 10.8773 3.83734 11.304 3.432C11.7413 3.02667 12.2107 2.82401 12.712 2.82401C13.2133 2.82401 13.656 2.97334 14.04 3.27201C14.424 3.56001 14.616 4.02934 14.616 4.68001C14.616 5.54401 14.3013 6.29067 13.672 6.92001C13.0533 7.54934 12.1893 8.12001 11.08 8.63201C11.464 8.81334 11.7467 9.11734 11.928 9.54401C12.1093 9.97067 12.2107 10.4187 12.232 10.888C12.2533 11.3573 12.2693 11.8107 12.28 12.248C12.3227 13.272 12.6267 13.784 13.192 13.784C13.8533 13.784 14.4293 13.0427 14.92 11.56ZM4.952 15.096C4.38667 15.096 3.93334 14.9253 3.592 14.584C3.25067 14.2427 3.08 13.8053 3.08 13.272C3.08 12.024 4.024 10.952 5.912 10.056C5.98667 9.42667 6.09334 8.53601 6.232 7.38401C6.49867 5.01601 6.65867 3.64001 6.712 3.25601C7.14934 2.97867 7.60267 2.84 8.072 2.84C8.552 2.84 8.91467 2.86667 9.16 2.92L7.976 11.96C7.656 14.0507 6.648 15.096 4.952 15.096ZM13.496 5.04801C13.496 4.88801 13.448 4.76534 13.352 4.68001C13.2667 4.59467 13.1813 4.552 13.096 4.552C13.0107 4.552 12.9413 4.56267 12.888 4.58401C12.8453 4.60534 12.8027 4.64267 12.76 4.696C12.728 4.73867 12.7013 4.78667 12.68 4.84C12.6587 4.88267 12.632 4.95201 12.6 5.04801C12.5787 5.14401 12.5573 5.22934 12.536 5.30401C12.5253 5.36801 12.504 5.46401 12.472 5.59201C12.44 5.72001 12.3973 5.89601 12.344 6.12001C12.2907 6.33334 12.2267 6.55201 12.152 6.77601C13.048 6.20001 13.496 5.62401 13.496 5.04801ZM4.264 13.064C4.264 13.448 4.44534 13.64 4.808 13.64C4.95734 13.64 5.112 13.544 5.272 13.352C5.44267 13.1493 5.56 12.8347 5.624 12.408L5.752 11.416C4.76 11.992 4.264 12.5413 4.264 13.064Z" fill="white"/>
<defs>
<linearGradient id="paint0_linear_8_18" x1="16.875" y1="-1.5" x2="7.60767" y2="22.8267" gradientUnits="userSpaceOnUse">
<stop stop-color="#005F78"/>
<stop offset="1" stop-color="#006045"/>
</linearGradient>
</defs>
</svg>
